<svg width="456" height="300" viewBox="0 0 456 300" fill="none" xmlns="http://www.w3.org/2000/svg">
<path d="M1.63463 276.07C2.53824 276.07 3.26926 276.801 3.26926 277.704C3.26926 278.608 2.53824 279.339 1.63463 279.339C0.731014 279.339 0 278.608 0 277.704C0 276.801 0.731014 276.07 1.63463 276.07Z" fill="#055DC2"/>
<path d="M12.4779 276.07C13.3815 276.07 14.1125 276.801 14.1125 277.704C14.1125 278.608 13.3815 279.339 12.4779 279.339C11.5743 279.339 10.8433 278.608 10.8433 277.704C10.8433 276.801 11.5743 276.07 12.4779 276.07Z" fill="#055DC2"/>
<path d="M23.3231 276.07C24.2267 276.07 24.9577 276.801 24.9577 277.704C24.9577 278.608 24.2267 279.339 23.3231 279.339C22.4195 279.339 21.6885 278.608 21.6885 277.704C21.6885 276.801 22.4195 276.07 23.3231 276.07Z" fill="#055DC2"/>
<path d="M34.1678 276.07C35.0714 276.07 35.8025 276.801 35.8025 277.704C35.8025 278.608 35.0714 279.339 34.1678 279.339C33.2642 279.339 32.5332 278.608 32.5332 277.704C32.5332 276.801 33.2642 276.07 34.1678 276.07Z" fill="#055DC2"/>
<path d="M45.0122 276.07C45.9158 276.07 46.6468 276.801 46.6468 277.704C46.6468 278.608 45.9158 279.339 45.0122 279.339C44.1086 279.339 43.3775 278.608 43.3775 277.704C43.3674 276.801 44.1086 276.07 45.0122 276.07Z" fill="#055DC2"/>
<path d="M1.63463 266.556C2.53824 266.556 3.26926 267.287 3.26926 268.191C3.26926 269.094 2.53824 269.825 1.63463 269.825C0.731014 269.825 0 269.094 0 268.191C0 267.287 0.731014 266.556 1.63463 266.556Z" fill="#055DC2"/>
<path d="M12.4779 266.556C13.3815 266.556 14.1125 267.287 14.1125 268.191C14.1125 269.094 13.3815 269.825 12.4779 269.825C11.5743 269.825 10.8433 269.094 10.8433 268.191C10.8433 267.287 11.5743 266.556 12.4779 266.556Z" fill="#055DC2"/>
<path d="M23.3231 266.556C24.2267 266.556 24.9577 267.287 24.9577 268.191C24.9577 269.094 24.2267 269.825 23.3231 269.825C22.4195 269.825 21.6885 269.094 21.6885 268.191C21.6885 267.287 22.4195 266.556 23.3231 266.556Z" fill="#055DC2"/>
<path d="M34.1678 266.556C35.0714 266.556 35.8025 267.287 35.8025 268.191C35.8025 269.094 35.0714 269.825 34.1678 269.825C33.2642 269.825 32.5332 269.094 32.5332 268.191C32.5332 267.287 33.2642 266.556 34.1678 266.556Z" fill="#055DC2"/>
<path d="M45.0121 266.556C45.9157 266.556 46.6467 267.287 46.6467 268.191C46.6467 269.094 45.9157 269.825 45.0121 269.825C44.1085 269.825 43.3774 269.094 43.3774 268.191C43.3774 267.287 44.1085 266.556 45.0121 266.556Z" fill="#055DC2"/>
<path d="M1.63463 257.043C2.53824 257.043 3.26926 257.774 3.26926 258.678C3.26926 259.581 2.53824 260.312 1.63463 260.312C0.731014 260.312 0 259.581 0 258.678C0 257.774 0.731014 257.043 1.63463 257.043Z" fill="#055DC2"/>
<path d="M12.4779 257.043C13.3815 257.043 14.1125 257.774 14.1125 258.678C14.1125 259.581 13.3815 260.312 12.4779 260.312C11.5743 260.312 10.8433 259.581 10.8433 258.678C10.8433 257.774 11.5743 257.043 12.4779 257.043Z" fill="#055DC2"/>
<path d="M23.3231 257.043C24.2267 257.043 24.9577 257.774 24.9577 258.678C24.9577 259.581 24.2267 260.312 23.3231 260.312C22.4195 260.312 21.6885 259.581 21.6885 258.678C21.6885 257.774 22.4195 257.043 23.3231 257.043Z" fill="#055DC2"/>
<path d="M34.1678 257.043C35.0714 257.043 35.8025 257.774 35.8025 258.678C35.8025 259.581 35.0714 260.312 34.1678 260.312C33.2642 260.312 32.5332 259.581 32.5332 258.678C32.5332 257.774 33.2642 257.043 34.1678 257.043Z" fill="#055DC2"/>
<path d="M45.0122 257.043C45.9158 257.043 46.6468 257.774 46.6468 258.678C46.6468 259.581 45.9158 260.312 45.0122 260.312C44.1086 260.312 43.3775 259.581 43.3775 258.678C43.3674 257.774 44.1086 257.043 45.0122 257.043Z" fill="#055DC2"/>
<path d="M43.0524 0.76123H280.084C283.08 0.76123 285.517 3.2081 285.517 6.21338V172.824C285.517 175.839 283.09 178.276 280.084 178.276H44.7481C40.8084 178.276 37.6201 175.067 37.6201 171.118V151.726V91.3765V65.8418V6.21338C37.6201 3.2081 40.0469 0.76123 43.0524 0.76123Z" fill="white" stroke="#141C3A" stroke-width="1.5"/>
<path d="M285.517 151.716V172.814C285.517 175.829 283.09 178.266 280.084 178.266H44.7481C40.8084 178.266 37.6201 175.057 37.6201 171.108V151.716" fill="white"/>
<path d="M285.517 151.716V172.814C285.517 175.829 283.09 178.266 280.084 178.266H44.7481C40.8084 178.266 37.6201 175.057 37.6201 171.108V151.716" stroke="#141C3A" stroke-width="1.5" stroke-miterlimit="10"/>
<path d="M276.012 11.0361H47.1235V141.075H276.012V11.0361Z" fill="#D2EBFF"/>
<path d="M285.517 150.792H38.0059" stroke="#141C3A" stroke-width="1.5"/>
<path d="M120.861 202.267L125.177 178.276H197.97L202.285 202.267H120.861Z" fill="white" stroke="#141C3A" stroke-width="1.5" stroke-miterlimit="10"/>
<path d="M375.784 202.267H37.6201" stroke="#141C3A" stroke-width="1.5" stroke-linecap="round" stroke-linejoin="round"/>
<path d="M161.568 158.904V166.437" stroke="#141C3A" stroke-width="1.5" stroke-miterlimit="10" stroke-linecap="round" stroke-linejoin="round"/>
<path d="M257.644 55.7802H160.452C158.858 55.7802 157.578 54.4908 157.578 52.9069V51.5769C157.578 49.9829 158.868 48.7036 160.452 48.7036H257.644C259.239 48.7036 260.518 49.993 260.518 51.5769V52.9069C260.528 54.501 259.239 55.7802 257.644 55.7802Z" fill="white"/>
<path d="M257.644 75.416H160.452C158.858 75.416 157.578 74.1265 157.578 72.5427V71.2126C157.578 69.6186 158.868 68.3394 160.452 68.3394H257.644C259.239 68.3394 260.518 69.6288 260.518 71.2126V72.5427C260.528 74.1265 259.239 75.416 257.644 75.416Z" fill="white"/>
<path d="M136.803 119.571H68.5996C65.2894 119.571 62.5986 116.881 62.5986 113.571V38.4286C62.5986 35.1188 65.2894 32.4282 68.5996 32.4282H136.803C140.113 32.4282 142.804 35.1188 142.804 38.4286V113.571C142.804 116.881 140.123 119.571 136.803 119.571Z" fill="white"/>
<path d="M257.482 119.571H160.614C158.939 119.571 157.578 118.211 157.578 116.535V105.205C157.578 103.529 158.939 102.169 160.614 102.169H257.482C259.157 102.169 260.518 103.529 260.518 105.205V116.535C260.528 118.211 259.168 119.571 257.482 119.571Z" fill="#FFC400" stroke="#141C3A" stroke-width="1.5" stroke-miterlimit="10"/>
<path d="M102.707 107.286C120.388 107.286 134.722 92.9539 134.722 75.274C134.722 57.5941 120.388 43.2617 102.707 43.2617C85.0251 43.2617 70.6914 57.5941 70.6914 75.274C70.6914 92.9539 85.0251 107.286 102.707 107.286Z" fill="white" stroke="#D2EBFF" stroke-width="1.5" stroke-miterlimit="10"/>
<path d="M128.101 94.7881C119.957 90.7675 110.93 86.8688 110.93 86.8688C110.22 86.483 109.783 85.7317 109.783 84.9296V82.0563C110.392 81.2542 112.047 78.8683 112.85 75.7208C113.692 75.0304 114.18 74.0151 114.18 72.9288V69.4159C114.18 68.5529 113.865 67.7203 113.296 67.0705V62.4408C113.347 61.923 113.53 59.0192 111.428 56.6231C109.621 54.5621 106.717 53.5061 102.777 53.4858C102.757 53.4858 102.726 53.4858 102.706 53.4858C102.686 53.4858 102.655 53.4858 102.635 53.4858C98.7052 53.5163 95.7911 54.5621 93.9837 56.6231C91.8818 59.0192 92.0646 61.923 92.1154 62.4408V67.0705C91.5569 67.7305 91.232 68.563 91.232 69.4159V72.9288C91.232 74.0253 91.7194 75.0406 92.5621 75.7208C93.3643 78.8683 95.0194 81.2441 95.6286 82.0563V84.9296C95.6286 85.7418 95.192 86.483 94.4812 86.8688C94.4812 86.8688 85.4544 90.7777 77.311 94.7881C83.0683 102.535 92.288 107.561 102.675 107.581C102.686 107.581 102.696 107.581 102.706 107.581C102.716 107.581 102.726 107.581 102.736 107.581C113.124 107.561 122.343 102.535 128.101 94.7881Z" fill="white" stroke="#D2EBFF" stroke-width="1.5" stroke-miterlimit="10"/>
<path d="M415.659 215.954V79.65C415.659 76.1371 413.262 73.2739 410.338 73.2739H226.726C223.801 73.2739 221.436 76.1472 221.436 79.65V215.943L415.659 215.954Z" fill="white" stroke="#141C3A" stroke-width="1.5" stroke-linecap="round" stroke-linejoin="round"/>
<path d="M202.661 215.842V221.741C202.661 225.507 205.596 229.66 208.429 229.66H429.894C432.727 229.66 434.433 225.822 434.433 222.086V215.842H202.661Z" fill="white" stroke="#141C3A" stroke-width="1.5" stroke-linecap="round" stroke-linejoin="round"/>
<path d="M233.427 204.684H403.677C405.271 204.684 406.551 203.394 406.551 201.811V87.2444C406.551 85.6504 405.261 84.3711 403.677 84.3711H233.427C231.833 84.3711 230.554 85.6605 230.554 87.2444V201.8C230.544 203.394 231.833 204.684 233.427 204.684Z" fill="#D2EBFF"/>
<path d="M136.752 62.7352C145.736 62.7352 153.019 55.4531 153.019 46.4701C153.019 37.4872 145.736 30.2051 136.752 30.2051C127.769 30.2051 120.486 37.4872 120.486 46.4701C120.486 55.4531 127.769 62.7352 136.752 62.7352Z" fill="#055DC2" stroke="#141C3A" stroke-width="1.5" stroke-miterlimit="10" stroke-linecap="round" stroke-linejoin="round"/>
<path d="M144.194 42.3989L135.655 50.5416L129.289 44.4397" stroke="white" stroke-width="1.5" stroke-miterlimit="10" stroke-linecap="round" stroke-linejoin="round"/>
<path d="M381.704 137.237H249.359C245.084 137.237 241.622 134.374 241.622 130.841V103.428C241.622 99.8847 245.074 97.0317 249.359 97.0317H381.714C385.989 97.0317 389.452 99.8949 389.452 103.428V130.841C389.442 134.354 385.989 137.237 381.704 137.237Z" fill="white"/>
<path d="M381.704 185.728H249.359C245.084 185.728 241.622 182.865 241.622 179.332V151.919C241.622 148.375 245.074 145.522 249.359 145.522H381.714C385.989 145.522 389.452 148.386 389.452 151.919V179.332C389.442 182.845 385.989 185.728 381.704 185.728Z" fill="white"/>
<path d="M278.866 270.556L278.916 277.653C278.916 277.653 278.023 282.202 277.302 287.045C276.581 291.888 276.043 297.035 276.764 298.233C278.195 300.629 281.069 298.233 281.546 295.837C282.023 293.441 282.744 278.607 282.744 278.607L283.221 269.033L278.866 270.556Z" fill="#141C3A" stroke="#141C3A" stroke-width="1.5" stroke-miterlimit="10" stroke-linecap="round" stroke-linejoin="round"/>
<path d="M271.605 269.612L272.701 275.988C272.701 275.988 274.854 293.451 273.656 296.081C272.458 298.711 268.63 297.513 268.874 293.929C269.117 290.345 268.153 277.664 268.153 277.664L266 270.008L271.605 269.612Z" fill="#141C3A" stroke="#141C3A" stroke-width="1.5" stroke-miterlimit="10" stroke-linecap="round" stroke-linejoin="round"/>
<path d="M274.561 191.81L275.089 199.668L254.832 209.446C251.176 211.415 249.41 215.69 250.618 219.67L264.651 271.815L271.596 269.602L265.432 221.639C264.996 218.685 267.027 215.944 269.971 215.477L277.18 214.35L284.867 206.522L275.982 214.492C273.83 216.421 272.774 219.294 273.159 222.157L278.866 270.556L285.182 272.14L288.004 224.492C288.208 221.467 290.238 218.878 293.132 217.964L305.621 214.004C307.612 212.796 308.85 210.654 308.911 208.329L308.383 191.556L274.561 191.81Z" fill="#141C3A" stroke="#141C3A" stroke-width="1.5" stroke-miterlimit="10" stroke-linecap="round" stroke-linejoin="round"/>
<path d="M309.663 209.415L306.322 144.304C306.322 144.304 292.472 143.472 288.35 143.472C286.106 143.472 282.267 144.538 279.242 145.502C276.398 146.416 274.033 146.335 272.652 148.985L249.938 192.511L263.889 193.841L268.539 188.52L266.174 184.936L274.662 164.925L272.997 201.262L309.663 209.415Z" fill="#FFEDE9" stroke="#141C3A" stroke-width="1.5" stroke-miterlimit="10" stroke-linecap="round" stroke-linejoin="round"/>
<path d="M287.74 163.138C292.32 163.138 300.707 151.188 300.707 146.609C300.707 145.685 300.544 144.792 300.27 143.959C296.006 143.725 290.654 143.472 288.35 143.472C287.334 143.472 285.994 143.695 284.562 144.02C284.298 144.832 284.146 145.705 284.146 146.609C284.136 151.188 283.161 163.138 287.74 163.138Z" fill="#FCF2D6" stroke="#141C3A" stroke-width="1.5" stroke-miterlimit="10" stroke-linecap="round" stroke-linejoin="round"/>
<path d="M286.948 136.781C287.334 137.563 290.055 148.243 290.055 148.243C290.055 148.243 291.03 149.99 293.355 149.797C295.69 149.604 296.655 146.304 296.655 146.304L292.573 132.902L286.948 136.781Z" fill="#FCF2D6" stroke="#141C3A" stroke-width="1.5" stroke-miterlimit="10" stroke-linecap="round" stroke-linejoin="round"/>
<path d="M301.326 130.202C301.326 137.563 293.518 145.706 286.156 145.706C278.795 145.706 274.683 137.563 274.683 130.202C274.683 122.841 280.653 116.881 288.005 116.881C295.356 116.881 301.326 122.841 301.326 130.202Z" fill="#FFEDE9" stroke="#141C3A" stroke-width="1.5" stroke-miterlimit="10" stroke-linecap="round" stroke-linejoin="round"/>
<path d="M302.727 131.268C302.727 139.553 296.016 146.264 287.73 146.264C279.445 146.264 272.733 139.553 272.733 131.268C272.733 122.983 279.445 116.272 287.73 116.272C296.016 116.272 302.727 122.983 302.727 131.268Z" fill="#FCF2D6" stroke="#141C3A" stroke-width="1.5" stroke-miterlimit="10" stroke-linecap="round" stroke-linejoin="round"/>
<path d="M277.851 139.421C278.145 139.939 278.104 140.527 277.749 140.731C277.394 140.934 276.866 140.68 276.561 140.162C276.267 139.644 276.307 139.055 276.663 138.852C277.018 138.649 277.546 138.903 277.851 139.421Z" stroke="#141C3A" stroke-width="1.5" stroke-miterlimit="10" stroke-linecap="round" stroke-linejoin="round"/>
<path d="M285.394 140.233C285.719 140.802 285.669 141.452 285.283 141.675C284.887 141.898 284.308 141.624 283.983 141.056C283.658 140.487 283.709 139.837 284.095 139.614C284.481 139.39 285.07 139.665 285.394 140.233Z" stroke="#141C3A" stroke-width="1.5" stroke-miterlimit="10" stroke-linecap="round" stroke-linejoin="round"/>
<path d="M290.543 203.161C289.964 202.968 285.039 200.582 281.546 200.582C278.054 200.582 273.779 204.268 273.779 204.268C273.779 204.268 273.2 206.207 275.525 205.821C277.861 205.435 275.2 207.283 275.2 207.283C275.2 207.283 275.322 207.374 278.043 207.76C280.765 208.146 291.365 207.577 291.365 207.577L290.543 203.161Z" fill="#FCF2D6" stroke="#141C3A" stroke-width="1.5" stroke-miterlimit="10" stroke-linecap="round" stroke-linejoin="round"/>
<path d="M306.312 144.304L308.19 187.16L290.573 203.1L291.416 207.577L316.222 194.328C318.618 193.049 319.969 190.409 319.593 187.708L315.064 154.914C314.689 150.822 312.221 147.218 308.535 145.401L306.312 144.304Z" fill="#FFEDE9" stroke="#141C3A" stroke-width="1.5" stroke-miterlimit="10" stroke-linecap="round" stroke-linejoin="round"/>
<path d="M300.594 133.745C300.594 136.253 298.564 138.293 296.046 138.293C293.538 138.293 291.497 136.263 291.497 133.745C291.497 131.237 293.528 129.196 296.046 129.196C298.564 129.196 300.594 131.227 300.594 133.745Z" fill="#FCF2D6"/>
<path d="M292.35 210.258H247.48V206.968H292.35C293.254 206.968 293.995 207.709 293.995 208.613C293.995 209.527 293.264 210.258 292.35 210.258Z" fill="#FFE4DF" stroke="#141C3A" stroke-width="1.5" stroke-miterlimit="10" stroke-linecap="round" stroke-linejoin="round"/>
<path d="M280.043 210.258H236.768C234.859 210.258 233.183 208.969 232.686 207.121L225.05 178.347C224.339 175.667 226.36 173.047 229.132 173.047H266.915C268.823 173.047 270.499 174.337 270.996 176.185L280.043 210.258Z" fill="#D2EBFF" stroke="#141C3A" stroke-width="1.5" stroke-miterlimit="10"/>
<path d="M229.132 173.047H266.915C268.823 173.047 270.499 174.337 270.996 176.185L279.17 206.968H292.35C293.254 206.968 293.995 207.71 293.995 208.613C293.995 209.517 293.254 210.258 292.35 210.258H280.043H247.48H236.768C234.859 210.258 233.183 208.969 232.686 207.121L225.05 178.347C224.339 175.677 226.36 173.047 229.132 173.047Z" fill="#D2EBFF" stroke="#141C3A" stroke-width="1.5" stroke-miterlimit="10"/>
<path d="M254.556 191.242C255.034 193.12 253.846 194.643 251.917 194.643C249.988 194.643 248.038 193.12 247.561 191.242C247.084 189.363 248.272 187.84 250.201 187.84C252.13 187.85 254.079 189.373 254.556 191.242Z" fill="#141C3A"/>
<path d="M287.73 116.272C280.034 116.272 273.698 122.069 272.834 129.542C275.444 131.471 278.846 132.324 282.044 131.765C285.821 131.105 289.213 128.506 290.827 125.034C290.715 126.699 290.594 128.374 290.878 130.019C291.152 131.664 291.863 133.288 293.152 134.354C293.244 133.187 293.355 131.979 293.965 130.984C294.574 129.989 295.843 129.288 296.93 129.704C297.711 130.009 298.209 130.821 298.331 131.654C298.442 132.486 298.229 133.329 297.925 134.111C297.447 135.339 296.737 136.466 295.843 137.441C297.62 137.725 299.478 137.928 301.255 137.756C302.199 135.796 302.738 133.603 302.738 131.288C302.727 122.983 296.016 116.272 287.73 116.272Z" fill="#141C3A" stroke="#141C3A" stroke-width="1.5" stroke-miterlimit="10" stroke-linecap="round" stroke-linejoin="round"/>
<path d="M305.713 114.972C305.713 120.313 301.377 124.648 296.036 124.648C290.695 124.648 286.359 120.313 286.359 114.972C286.359 109.632 290.695 105.296 296.036 105.296C301.377 105.296 305.713 109.632 305.713 114.972Z" fill="#141C3A" stroke="#141C3A" stroke-width="1.5" stroke-miterlimit="10" stroke-linecap="round" stroke-linejoin="round"/>
<path d="M373.844 270.577L373.794 277.674C373.794 277.674 374.687 282.222 375.408 287.065C376.129 291.908 376.667 297.056 375.946 298.254C374.514 300.65 371.641 298.254 371.164 295.858C370.687 293.461 369.966 278.628 369.966 278.628L369.489 269.054L373.844 270.577Z" fill="#141C3A" stroke="#141C3A" stroke-width="1.5" stroke-miterlimit="10" stroke-linecap="round" stroke-linejoin="round"/>
<path d="M381.115 269.622L381.013 270.241L380.018 275.998C380.018 275.998 377.866 293.461 379.064 296.091C380.262 298.721 384.09 297.522 383.846 293.938C383.602 290.354 384.567 277.673 384.567 277.673L386.252 271.703L386.73 270.018L381.115 269.622Z" fill="#141C3A" stroke="#141C3A" stroke-width="1.5" stroke-miterlimit="10" stroke-linecap="round" stroke-linejoin="round"/>
<path d="M378.15 191.83L377.622 199.688L397.879 209.466C401.535 211.435 403.301 215.71 402.093 219.69L388.061 271.835L381.115 269.622L387.279 221.659C387.715 218.705 385.685 215.964 382.74 215.497L375.531 214.37L367.844 206.542L376.729 214.512C378.881 216.441 379.937 219.314 379.552 222.177L373.845 270.576L367.529 272.16L364.707 224.512C364.504 221.487 362.473 218.898 359.579 217.984L347.09 214.024C345.099 212.816 343.861 210.674 343.8 208.349L344.328 191.576L378.15 191.83Z" fill="#141C3A" stroke="#141C3A" stroke-width="1.5" stroke-miterlimit="10" stroke-linecap="round" stroke-linejoin="round"/>
<path d="M343.059 209.435L346.399 144.324C346.399 144.324 360.249 143.492 364.372 143.492C366.616 143.492 370.454 144.558 373.48 145.522C376.323 146.436 378.689 146.355 380.069 149.005L402.784 192.531L388.832 193.861L384.182 188.54L386.548 184.956L378.059 164.945L379.724 201.282L343.059 209.435Z" fill="#055DC2" stroke="#141C3A" stroke-width="1.5" stroke-miterlimit="10" stroke-linecap="round" stroke-linejoin="round"/>
<path d="M360.289 154.914C355.71 154.914 352.003 151.208 352.003 146.629C352.003 145.705 352.166 144.812 352.44 143.979C356.705 143.746 362.056 143.492 364.361 143.492C365.376 143.492 366.716 143.715 368.148 144.04C368.412 144.852 368.564 145.725 368.564 146.629C368.575 151.208 364.868 154.914 360.289 154.914Z" fill="#FCF2D6" stroke="#141C3A" stroke-width="1.5" stroke-miterlimit="10" stroke-linecap="round" stroke-linejoin="round"/>
<path d="M365.762 136.801C365.376 137.583 362.655 148.264 362.655 148.264C362.655 148.264 361.68 150.01 359.355 149.817C357.02 149.624 356.056 146.324 356.056 146.324L360.137 132.922L365.762 136.801Z" fill="#FCF2D6" stroke="#141C3A" stroke-width="1.5" stroke-miterlimit="10" stroke-linecap="round" stroke-linejoin="round"/>
<path d="M351.394 130.222C351.394 137.583 359.202 145.726 366.564 145.726C373.926 145.726 378.038 137.583 378.038 130.222C378.038 122.861 372.067 116.901 364.716 116.901C357.354 116.891 351.394 122.861 351.394 130.222Z" fill="#DDEAF5" stroke="#141C3A" stroke-width="1.5" stroke-miterlimit="10" stroke-linecap="round" stroke-linejoin="round"/>
<path d="M379.342 136.843C382.663 128.896 378.912 119.761 370.964 116.44C363.017 113.118 353.882 116.868 350.56 124.815C347.239 132.763 350.99 141.898 358.937 145.219C366.885 148.54 376.02 144.79 379.342 136.843Z" fill="#FCF2D6" stroke="#141C3A" stroke-width="1.5" stroke-miterlimit="10" stroke-linecap="round" stroke-linejoin="round"/>
<path d="M380.018 136.039C379.612 135.725 378.455 135.572 377.856 135.572C376.099 135.572 374.13 137.075 373.47 138.913C373.124 139.887 373.195 140.842 373.662 141.512" fill="#FCF2D6"/>
<path d="M373.673 141.502C373.196 140.832 373.125 139.888 373.48 138.903C374.13 137.065 376.099 135.562 377.866 135.562C378.699 135.562 379.379 135.887 379.805 136.476C380.282 137.146 380.353 138.091 379.998 139.075C379.348 140.913 377.379 142.416 375.612 142.416C374.769 142.416 374.089 142.091 373.673 141.502Z" stroke="#141C3A" stroke-width="1.5" stroke-miterlimit="10" stroke-linecap="round" stroke-linejoin="round"/>
<path d="M364.829 141.502C364.351 140.832 364.28 139.888 364.636 138.903C365.285 137.065 367.255 135.562 369.022 135.562C369.854 135.562 370.535 135.887 370.961 136.476C371.438 137.146 371.509 138.091 371.154 139.075C370.504 140.913 368.534 142.416 366.768 142.416C365.935 142.416 365.255 142.091 364.829 141.502Z" fill="#FCF2D6" stroke="#141C3A" stroke-width="1.5" stroke-miterlimit="10" stroke-linecap="round" stroke-linejoin="round"/>
<path d="M374.028 139.898C373.784 140.314 373.825 140.781 374.109 140.943C374.394 141.106 374.82 140.903 375.064 140.486C375.307 140.07 375.267 139.603 374.982 139.441C374.688 139.278 374.272 139.481 374.028 139.898Z" stroke="#141C3A" stroke-width="1.5" stroke-miterlimit="10" stroke-linecap="round" stroke-linejoin="round"/>
<path d="M367.357 140.213C367.113 140.629 367.154 141.096 367.438 141.258C367.722 141.421 368.149 141.218 368.392 140.801C368.636 140.385 368.595 139.918 368.311 139.756C368.027 139.603 367.6 139.806 367.357 140.213Z" stroke="#141C3A" stroke-width="1.5" stroke-miterlimit="10" stroke-linecap="round" stroke-linejoin="round"/>
<path d="M379.342 136.843C382.663 128.896 378.912 119.761 370.964 116.44C363.017 113.118 353.882 116.868 350.56 124.815C347.239 132.763 350.99 141.898 358.937 145.219C366.885 148.54 376.02 144.79 379.342 136.843Z" stroke="#141C3A" stroke-width="1.5" stroke-miterlimit="10" stroke-linecap="round" stroke-linejoin="round"/>
<path d="M362.178 203.171C362.757 202.978 367.681 200.592 371.174 200.592C374.667 200.592 378.942 204.278 378.942 204.278C378.942 204.278 379.521 206.217 377.196 205.831C374.86 205.445 377.52 207.293 377.52 207.293C377.52 207.293 377.399 207.385 374.677 207.77C371.956 208.156 361.355 207.588 361.355 207.588L362.178 203.171Z" fill="#FCF2D6" stroke="#141C3A" stroke-width="1.5" stroke-miterlimit="10" stroke-linecap="round" stroke-linejoin="round"/>
<path d="M346.399 144.324L344.521 187.18L362.138 203.12L361.295 207.598L336.489 194.348C334.093 193.069 332.742 190.429 333.118 187.728L337.647 154.934C338.022 150.842 340.49 147.238 344.175 145.421L346.399 144.324Z" fill="#055DC2" stroke="#141C3A" stroke-width="1.5" stroke-miterlimit="10" stroke-linecap="round" stroke-linejoin="round"/>
<path d="M352.116 133.755C352.116 136.263 354.146 138.304 356.664 138.304C359.182 138.304 361.213 136.273 361.213 133.755C361.213 131.247 359.182 129.207 356.664 129.207C354.146 129.207 352.116 131.247 352.116 133.755Z" fill="#FCF2D6"/>
<path d="M364.991 116.282C372.687 116.282 379.023 122.079 379.887 129.552C377.277 131.481 373.875 132.334 370.677 131.775C366.9 131.115 363.508 128.516 361.894 125.044C362.006 126.709 362.127 128.384 361.843 130.029C361.569 131.674 360.858 133.298 359.569 134.364C359.477 133.197 359.366 131.988 358.756 130.993C358.147 129.998 356.878 129.298 355.791 129.714C355.01 130.019 354.512 130.831 354.39 131.663C354.278 132.496 354.492 133.339 354.796 134.12C355.274 135.349 355.984 136.476 356.878 137.451C355.101 137.735 353.243 137.938 351.466 137.765C350.522 135.806 349.983 133.613 349.983 131.298C349.983 123.003 356.705 116.282 364.991 116.282Z" fill="#141C3A" stroke="#141C3A" stroke-width="1.5" stroke-miterlimit="10" stroke-linecap="round" stroke-linejoin="round"/>
<path d="M360.361 210.278H405.231V206.988H360.361C359.457 206.988 358.716 207.729 358.716 208.633C358.716 209.537 359.457 210.278 360.361 210.278Z" fill="#DDEAF5" stroke="#141C3A" stroke-width="1.5" stroke-miterlimit="10" stroke-linecap="round" stroke-linejoin="round"/>
<path d="M372.677 210.278H415.953C417.862 210.278 419.537 208.989 420.035 207.141L427.671 178.367C428.381 175.687 426.361 173.067 423.589 173.067H385.806C383.897 173.067 382.222 174.357 381.724 176.205L372.677 210.278Z" fill="#DDEAF5" stroke="#141C3A" stroke-width="1.5" stroke-miterlimit="10" stroke-linecap="round" stroke-linejoin="round"/>
<path d="M360.361 206.988H373.54L381.714 176.205C382.202 174.357 383.877 173.067 385.796 173.067H423.579C426.351 173.067 428.371 175.697 427.66 178.367L420.025 207.141C419.537 208.989 417.862 210.278 415.943 210.278H405.241H372.677H360.361C359.457 210.278 358.716 209.537 358.716 208.633C358.716 207.719 359.457 206.988 360.361 206.988Z" fill="#D2EBFF" stroke="#141C3A" stroke-width="1.5" stroke-miterlimit="10"/>
<path d="M398.153 191.262C397.676 193.14 398.864 194.663 400.793 194.663C402.722 194.663 404.672 193.14 405.149 191.262C405.626 189.383 404.438 187.86 402.509 187.86C400.58 187.871 398.63 189.383 398.153 191.262Z" fill="#141C3A"/>
<path d="M369.672 272.759L369.936 277.927L373.794 277.673V271.399L369.641 272.15L369.672 272.759Z" fill="#FCF2D6" stroke="#141C3A" stroke-width="1.5" stroke-miterlimit="10" stroke-linecap="round" stroke-linejoin="round"/>
<path d="M380.953 270.566L386.202 271.836L384.567 277.673L380.019 275.998L380.953 270.566Z" fill="#FCF2D6" stroke="#141C3A" stroke-width="1.5" stroke-miterlimit="10" stroke-linecap="round" stroke-linejoin="round"/>
<path d="M266.884 272.851L268.509 278.587L273.128 277.186L272.133 271.439L266.884 272.851Z" fill="#FCF2D6" stroke="#141C3A" stroke-width="1.5" stroke-miterlimit="10" stroke-linecap="round" stroke-linejoin="round"/>
<path d="M279.028 271.714L279.069 277.704L282.958 277.836L283.221 272.587L279.028 271.714Z" fill="#FCF2D6" stroke="#141C3A" stroke-width="1.5" stroke-miterlimit="10" stroke-linecap="round" stroke-linejoin="round"/>
<path d="M278.003 69.8425C278.003 80.5031 258.721 102.038 258.721 102.038C258.721 102.038 239.428 80.5031 239.428 69.8425C239.428 59.1819 248.069 50.562 258.71 50.562C269.352 50.562 278.003 59.2022 278.003 69.8425Z" fill="#FFC400" stroke="#141C3A" stroke-width="1.5" stroke-miterlimit="10"/>
<path d="M265.817 78.0665C270.356 74.1373 270.853 67.2638 266.924 62.7254C262.994 58.1769 256.12 57.6895 251.581 61.6187C247.032 65.5479 246.535 72.4215 250.475 76.9599C254.404 81.4982 261.268 81.9957 265.817 78.0665Z" fill="white" stroke="#141C3A" stroke-width="1.5"/>
<path d="M252.791 44.2873L237.844 35.9822C237.022 35.5253 237.215 34.2867 238.139 34.1039L243.266 33.0582C243.571 32.9972 243.835 32.7942 243.977 32.5099L246.424 27.5045C246.84 26.6618 248.069 26.7836 248.313 27.6872L252.791 44.2873Z" fill="white" stroke="#141C3A" stroke-width="1.5" stroke-miterlimit="10" stroke-linecap="round" stroke-linejoin="round"/>
<path d="M454.365 13.1887C453.461 13.1887 452.73 12.4577 452.73 11.5541C452.73 10.6504 453.461 9.91943 454.365 9.91943C455.269 9.91943 456 10.6504 456 11.5541C456 12.4577 455.269 13.1887 454.365 13.1887Z" fill="#FFC400"/>
<path d="M443.52 13.1887C442.617 13.1887 441.886 12.4577 441.886 11.5541C441.886 10.6504 442.617 9.91943 443.52 9.91943C444.424 9.91943 445.155 10.6504 445.155 11.5541C445.155 12.4577 444.424 13.1887 443.52 13.1887Z" fill="#FFC400"/>
<path d="M432.676 13.1887C431.773 13.1887 431.042 12.4577 431.042 11.5541C431.042 10.6504 431.773 9.91943 432.676 9.91943C433.58 9.91943 434.311 10.6504 434.311 11.5541C434.311 12.4577 433.58 13.1887 432.676 13.1887Z" fill="#FFC400"/>
<path d="M421.831 13.1886C420.927 13.1886 420.196 12.4576 420.196 11.5438C420.196 10.6402 420.927 9.90918 421.831 9.90918C422.735 9.90918 423.466 10.6402 423.466 11.5438C423.476 12.4576 422.735 13.1886 421.831 13.1886Z" fill="#FFC400"/>
<path d="M410.988 13.1882C410.084 13.1882 409.353 12.4572 409.353 11.5536C409.353 10.65 410.084 9.91895 410.988 9.91895C411.891 9.91895 412.622 10.65 412.622 11.5536C412.632 12.4572 411.891 13.1882 410.988 13.1882Z" fill="#FFC400"/>
<path d="M454.365 22.7019C453.461 22.7019 452.73 21.9709 452.73 21.0672C452.73 20.1636 453.461 19.4326 454.365 19.4326C455.269 19.4326 456 20.1636 456 21.0672C456 21.9709 455.269 22.7019 454.365 22.7019Z" fill="#FFC400"/>
<path d="M443.52 22.7019C442.617 22.7019 441.886 21.9709 441.886 21.0672C441.886 20.1636 442.617 19.4326 443.52 19.4326C444.424 19.4326 445.155 20.1636 445.155 21.0672C445.155 21.9709 444.424 22.7019 443.52 22.7019Z" fill="#FFC400"/>
<path d="M432.676 22.7018C431.773 22.7018 431.042 21.9708 431.042 21.057C431.042 20.1534 431.773 19.4224 432.676 19.4224C433.58 19.4224 434.311 20.1534 434.311 21.057C434.311 21.9708 433.58 22.7018 432.676 22.7018Z" fill="#FFC400"/>
<path d="M421.831 22.7019C420.927 22.7019 420.196 21.9709 420.196 21.0672C420.196 20.1636 420.927 19.4326 421.831 19.4326C422.735 19.4326 423.466 20.1636 423.466 21.0672C423.476 21.9709 422.735 22.7019 421.831 22.7019Z" fill="#FFC400"/>
<path d="M410.988 22.7014C410.084 22.7014 409.353 21.9704 409.353 21.0668C409.353 20.1631 410.084 19.4321 410.988 19.4321C411.891 19.4321 412.622 20.1631 412.622 21.0668C412.622 21.9704 411.891 22.7014 410.988 22.7014Z" fill="#FFC400"/>
<path d="M454.365 32.2151C453.461 32.2151 452.73 31.484 452.73 30.5804C452.73 29.6768 453.461 28.9458 454.365 28.9458C455.269 28.9458 456 29.6768 456 30.5804C456 31.484 455.269 32.2151 454.365 32.2151Z" fill="#FFC400"/>
<path d="M443.52 32.2151C442.617 32.2151 441.886 31.484 441.886 30.5804C441.886 29.6768 442.617 28.9458 443.52 28.9458C444.424 28.9458 445.155 29.6768 445.155 30.5804C445.155 31.484 444.424 32.2151 443.52 32.2151Z" fill="#FFC400"/>
<path d="M432.676 32.2151C431.773 32.2151 431.042 31.484 431.042 30.5804C431.042 29.6768 431.773 28.9458 432.676 28.9458C433.58 28.9458 434.311 29.6768 434.311 30.5804C434.311 31.484 433.58 32.2151 432.676 32.2151Z" fill="#FFC400"/>
<path d="M421.831 32.2151C420.927 32.2151 420.196 31.484 420.196 30.5804C420.196 29.6768 420.927 28.9458 421.831 28.9458C422.735 28.9458 423.466 29.6768 423.466 30.5804C423.476 31.484 422.735 32.2151 421.831 32.2151Z" fill="#FFC400"/>
<path d="M410.988 32.2151C410.084 32.2151 409.353 31.484 409.353 30.5804C409.353 29.6768 410.084 28.9458 410.988 28.9458C411.891 28.9458 412.622 29.6768 412.622 30.5804C412.622 31.484 411.891 32.2151 410.988 32.2151Z" fill="#FFC400"/>
<path d="M148.998 30.205C148.998 30.205 182.942 -3.54349 239.428 29.3826" stroke="#141C3A" stroke-width="1.5" stroke-linecap="round" stroke-linejoin="round" stroke-dasharray="5.87 5.87"/>
</svg>
